<svg preserveAspectRatio="none" overflow="visible" style="display: block;" width="14" height="14" viewBox="0 0 14 14" fill="none" xmlns="http://www.w3.org/2000/svg">
<g id="Icon / Roses Card">
<path id="Vector" d="M7 1.2C4.4 1.2 2.8 2.8 2.8 4.9C2.8 7 4.4 8.4 7 9.4C9.6 8.4 11.2 7 11.2 4.9C11.2 2.8 9.6 1.2 7 1.2Z" stroke="#FF2438" stroke-width="1.2" stroke-linejoin="round"/>
<path id="Vector_2" d="M7 3.2C5.8 3.2 5 4 5 5C5 6 5.8 6.8 7 7.2C8.2 6.8 9 6 9 5C9 4 8.2 3.2 7 3.2Z" stroke="#FF2438" stroke-width="1.1"/>
<path id="Vector_3" d="M7 9.4V13" stroke="#FF2438" stroke-width="1.2" stroke-linecap="round"/>
<path id="Vector_4" d="M7 11.5C8.5 10.8 9.6 11.2 10.3 12.1C8.9 12.5 7.9 12.3 7 11.5Z" stroke="#FF2438" stroke-linejoin="round"/>
</g>
</svg>
